<svg xmlns="http://www.w3.org/2000/svg" xmlns:xlink="http://www.w3.org/1999/xlink" width="553" height="772" viewBox="0 0 553 772">
  <defs>
    <radialGradient id="radial-gradient" cx="0.5" cy="1.66" r="1.315" gradientTransform="matrix(0.687, 0.726, -0.753, 0.712, 0.533, -0.219)" gradientUnits="objectBoundingBox">
      <stop offset="0" stop-color="#d1d1d1"/>
      <stop offset="1" stop-color="#fff"/>
    </radialGradient>
    <clipPath id="clip-path">
      <rect id="Rectangle_1484" data-name="Rectangle 1484" width="553" height="772" rx="30" transform="translate(941 310)" fill="url(#radial-gradient)"/>
    </clipPath>
  </defs>
  <g id="Mask_Group_1" data-name="Mask Group 1" transform="translate(-941 -310)" opacity="0.399" clip-path="url(#clip-path)">
    <path id="Union_1" data-name="Union 1" d="M-807,499.5c0-20.711,17.014-37.5,38-37.5s38,16.789,38,37.5S-748.013,537-769,537-807,520.211-807,499.5Zm-233-23c0-20.71,17.014-37.5,38-37.5s38,16.789,38,37.5-17.014,37.5-38,37.5S-1040,497.21-1040,476.5Zm182-89c0-20.711,17.013-37.5,38-37.5s38,16.789,38,37.5S-799.013,425-820,425-858,408.21-858,387.5Zm-115-12c0-20.711,17.013-37.5,38-37.5s38,16.789,38,37.5S-914.013,413-935,413-973,396.211-973,375.5Zm204-33c0-20.711,17.013-37.5,38-37.5s38,16.789,38,37.5S-710.014,380-731,380-769,363.21-769,342.5Zm-410-19c0-20.71,17.014-37.5,38-37.5s38,16.789,38,37.5-17.013,37.5-38,37.5S-1179,344.21-1179,323.5Zm117-8c0-20.711,17.014-37.5,38-37.5s38,16.79,38,37.5-17.013,37.5-38,37.5S-1062,336.21-1062,315.5Zm189-19c0-20.71,17.014-37.5,38-37.5s38,16.789,38,37.5S-814.013,334-835,334-873,317.21-873,296.5Zm-411-56c0-20.711,17.014-37.5,38-37.5s38,16.789,38,37.5-17.014,37.5-38,37.5S-1284,261.211-1284,240.5Zm140-4c0-20.711,17.013-37.5,38-37.5s38,16.789,38,37.5-17.013,37.5-38,37.5S-1144,257.211-1144,236.5Zm178-5c0-20.711,17.013-37.5,38-37.5s38,16.789,38,37.5S-907.013,269-928,269-966,252.211-966,231.5Z" transform="translate(2225 79)" fill="#0a8989" opacity="0.1"/>
    <path id="Union_2" data-name="Union 2" d="M-807,499.5c0-20.711,17.014-37.5,38-37.5s38,16.789,38,37.5S-748.013,537-769,537-807,520.211-807,499.5Zm-233-23c0-20.71,17.014-37.5,38-37.5s38,16.789,38,37.5-17.014,37.5-38,37.5S-1040,497.21-1040,476.5Zm182-89c0-20.711,17.013-37.5,38-37.5s38,16.789,38,37.5S-799.013,425-820,425-858,408.21-858,387.5Zm-115-12c0-20.711,17.013-37.5,38-37.5s38,16.789,38,37.5S-914.013,413-935,413-973,396.211-973,375.5Zm204-33c0-20.711,17.013-37.5,38-37.5s38,16.789,38,37.5S-710.014,380-731,380-769,363.21-769,342.5Zm-410-19c0-20.71,17.014-37.5,38-37.5s38,16.789,38,37.5-17.013,37.5-38,37.5S-1179,344.21-1179,323.5Zm117-8c0-20.711,17.014-37.5,38-37.5s38,16.79,38,37.5-17.013,37.5-38,37.5S-1062,336.21-1062,315.5Zm189-19c0-20.71,17.014-37.5,38-37.5s38,16.789,38,37.5S-814.013,334-835,334-873,317.21-873,296.5Zm-411-56c0-20.711,17.014-37.5,38-37.5s38,16.789,38,37.5-17.014,37.5-38,37.5S-1284,261.211-1284,240.5Zm140-4c0-20.711,17.013-37.5,38-37.5s38,16.789,38,37.5-17.013,37.5-38,37.5S-1144,257.211-1144,236.5Zm178-5c0-20.711,17.013-37.5,38-37.5s38,16.789,38,37.5S-907.013,269-928,269-966,252.211-966,231.5Z" transform="translate(2275 39)" fill="#0a8989" opacity="0.215"/>
  </g>
</svg>
