<svg xmlns="http://www.w3.org/2000/svg" xmlns:xlink="http://www.w3.org/1999/xlink" width="553" height="772" viewBox="0 0 553 772">
  <defs>
    <radialGradient id="radial-gradient" cx="0.5" cy="-0.66" r="1.315" gradientTransform="matrix(-0.687, -0.726, 0.753, -0.712, 2.213, -0.433)" gradientUnits="objectBoundingBox">
      <stop offset="0" stop-color="#d1d1d1"/>
      <stop offset="1" stop-color="#fff"/>
    </radialGradient>
    <clipPath id="clip-path">
      <rect id="Rectangle_1485" data-name="Rectangle 1485" width="553" height="772" rx="30" fill="url(#radial-gradient)"/>
    </clipPath>
  </defs>
  <g id="Mask_Group_2" data-name="Mask Group 2" opacity="0.181" clip-path="url(#clip-path)">
    <path id="Union_3" data-name="Union 3" d="M477,305.5c0-20.711,17.014-37.5,38-37.5s38,16.789,38,37.5S535.987,343,515,343,477,326.21,477,305.5Zm-233-23c0-20.71,17.014-37.5,38-37.5s38,16.789,38,37.5S302.987,320,282,320,244,303.21,244,282.5Zm182-89c0-20.711,17.013-37.5,38-37.5s38,16.789,38,37.5S484.988,231,464,231,426,214.21,426,193.5Zm-115-12c0-20.711,17.013-37.5,38-37.5s38,16.789,38,37.5S369.987,219,349,219,311,202.21,311,181.5Zm204-33c0-20.711,17.013-37.5,38-37.5s38,16.789,38,37.5S573.987,186,553,186,515,169.21,515,148.5Zm-410-19c0-20.71,17.014-37.5,38-37.5s38,16.789,38,37.5S163.987,167,143,167,105,150.21,105,129.5Zm117-8c0-20.711,17.014-37.5,38-37.5s38,16.79,38,37.5S280.987,159,260,159,222,142.21,222,121.5Zm189-19c0-20.71,17.014-37.5,38-37.5s38,16.789,38,37.5S469.987,140,449,140,411,123.21,411,102.5ZM0,46.5C0,25.789,17.014,9,38,9S76,25.789,76,46.5,58.987,84,38,84,0,67.21,0,46.5Zm140-4C140,21.789,157.013,5,178,5s38,16.789,38,37.5S198.987,80,178,80,140,63.211,140,42.5Zm178-5C318,16.789,335.013,0,356,0s38,16.789,38,37.5S376.988,75,356,75,318,58.21,318,37.5Z" transform="translate(553 809) rotate(180)" fill="#0a8989" opacity="0.1"/>
    <path id="Union_4" data-name="Union 4" d="M477,305.5c0-20.711,17.014-37.5,38-37.5s38,16.789,38,37.5S535.987,343,515,343,477,326.21,477,305.5Zm-233-23c0-20.71,17.014-37.5,38-37.5s38,16.789,38,37.5S302.987,320,282,320,244,303.21,244,282.5Zm182-89c0-20.711,17.013-37.5,38-37.5s38,16.789,38,37.5S484.988,231,464,231,426,214.21,426,193.5Zm-115-12c0-20.711,17.013-37.5,38-37.5s38,16.789,38,37.5S369.987,219,349,219,311,202.21,311,181.5Zm204-33c0-20.711,17.013-37.5,38-37.5s38,16.789,38,37.5S573.987,186,553,186,515,169.21,515,148.5Zm-410-19c0-20.71,17.014-37.5,38-37.5s38,16.789,38,37.5S163.987,167,143,167,105,150.21,105,129.5Zm117-8c0-20.711,17.014-37.5,38-37.5s38,16.79,38,37.5S280.987,159,260,159,222,142.21,222,121.5Zm189-19c0-20.71,17.014-37.5,38-37.5s38,16.789,38,37.5S469.987,140,449,140,411,123.21,411,102.5ZM0,46.5C0,25.789,17.014,9,38,9S76,25.789,76,46.5,58.987,84,38,84,0,67.21,0,46.5Zm140-4C140,21.789,157.013,5,178,5s38,16.789,38,37.5S198.987,80,178,80,140,63.211,140,42.5Zm178-5C318,16.789,335.013,0,356,0s38,16.789,38,37.5S376.988,75,356,75,318,58.21,318,37.5Z" transform="translate(503 849) rotate(180)" fill="#0a8989" opacity="0.215"/>
  </g>
</svg>
